<?xml version="1.0" encoding="UTF-8"?>
<svg version="1.1" xmlns="http://www.w3.org/2000/svg" width="150" height="139">
<path d="M0 0 C49.5 0 99 0 150 0 C150 45.87 150 91.74 150 139 C100.5 139 51 139 0 139 C0 93.13 0 47.26 0 0 Z " fill="#101729" transform="translate(0,0)"/>
<path d="M0 0 C3.4375 0.75 3.4375 0.75 5.4375 2.75 C5.44921875 4.625 5.44921875 4.625 5.125 6.75 C5.02574219 7.45125 4.92648438 8.1525 4.82421875 8.875 C4.4375 10.75 4.4375 10.75 3.4375 12.75 C4.67198108 16.2352269 6.4204647 19.50327288 8.0625 22.8125 C8.50207031 23.74900391 8.94164062 24.68550781 9.39453125 25.65039062 C9.83410156 26.54048828 10.27367187 27.43058594 10.7265625 28.34765625 C11.12568848 29.16758057 11.52481445 29.98750488 11.93603516 30.83227539 C13.32614336 32.95550236 13.32614336 32.95550236 15.90527344 33.65136719 C19.87882002 33.80614089 22.17331894 31.37483425 25.0625 28.9375 C26.20011769 28.01382618 27.33812533 27.09063237 28.4765625 26.16796875 C29.45367187 25.37003906 30.43078125 24.57210937 31.4375 23.75 C32.4275 23.09 33.4175 22.43 34.4375 21.75 C34.4375 19.7199314 34.43369766 17.68925932 34.37109375 15.66015625 C34.4375 13.75 34.4375 13.75 35.5 11.75 C38.56965135 10.16566382 41.05431143 10.38751551 44.4375 10.75 C46.375 11.875 46.375 11.875 47.4375 13.75 C47.875 16.6875 47.875 16.6875 47.4375 19.75 C45.625 22.125 45.625 22.125 43.4375 23.75 C42.4475 23.75 41.4575 23.75 40.4375 23.75 C40.19966797 25.55404297 40.19966797 25.55404297 39.95703125 27.39453125 C38.50917108 38.09379203 36.82865873 48.74499008 34.9375 59.375 C34.73616455 60.55425049 34.5348291 61.73350098 34.32739258 62.94848633 C34.12654053 64.05087646 33.92568848 65.1532666 33.71875 66.2890625 C33.45674805 67.76173584 33.45674805 67.76173584 33.18945312 69.26416016 C32.3377714 72.0796872 31.77012201 72.99551101 29.4375 74.75 C26.78112793 75.13768005 26.78112793 75.13768005 23.54492188 75.15405273 C22.33356567 75.16673691 21.12220947 75.17942108 19.87414551 75.19248962 C18.56473999 75.18955399 17.25533447 75.18661835 15.90625 75.18359375 C14.55008685 75.18815448 13.19392602 75.19345972 11.83776855 75.19947815 C8.99640509 75.2084121 6.15532266 75.20598278 3.31396484 75.19604492 C-0.3281571 75.18454788 -3.96931056 75.2047748 -7.61130524 75.23396206 C-10.41146 75.25230256 -13.21138167 75.25203616 -16.01158142 75.24632454 C-18.00746793 75.24609647 -20.00333244 75.26301313 -21.99914551 75.28013611 C-23.21050171 75.27075516 -24.42185791 75.26137421 -25.66992188 75.25170898 C-26.73786987 75.25154282 -27.80581787 75.25137665 -28.90612793 75.25120544 C-31.5625 74.75 -31.5625 74.75 -33.36360168 73.0032196 C-34.60877073 70.6630384 -35.18747581 68.80282404 -35.63745117 66.19677734 C-35.79739059 65.30260101 -35.95733002 64.40842468 -36.12211609 63.4871521 C-36.28162247 62.52975128 -36.44112885 61.57235046 -36.60546875 60.5859375 C-36.77879227 59.59751862 -36.95211578 58.60909973 -37.13069153 57.59072876 C-37.68088004 54.43719061 -38.21539477 51.28121316 -38.75 48.125 C-39.12076363 45.99201672 -39.49249722 43.85920179 -39.86523438 41.7265625 C-40.54108395 37.83347967 -41.21545158 33.94019001 -41.87573242 30.04443359 C-42.00880295 29.26151947 -42.14187347 28.47860535 -42.27897644 27.67196655 C-42.5625 25.75 -42.5625 25.75 -42.5625 23.75 C-43.34625 23.646875 -44.13 23.54375 -44.9375 23.4375 C-47.5625 22.75 -47.5625 22.75 -49.5625 19.75 C-49.88412076 16.6624407 -50.04974515 14.60984439 -48.5 11.875 C-45.4555714 10.10726726 -42.9993988 10.38176084 -39.5625 10.75 C-37.625 11.75 -37.625 11.75 -36.5625 13.75 C-36.69914062 14.97589844 -36.83578125 16.20179687 -36.9765625 17.46484375 C-37.01029604 20.20252162 -36.86124066 21.3714337 -35.1472168 23.54345703 C-33.13483738 25.28070746 -31.06456355 26.80515034 -28.875 28.3125 C-28.15376953 28.85712891 -27.43253906 29.40175781 -26.68945312 29.96289062 C-22.74649803 32.97828226 -22.74649803 32.97828226 -17.98486328 33.66113281 C-14.86462164 32.48750433 -14.29766213 31.366648 -12.81640625 28.41796875 C-12.37232422 27.53689453 -11.92824219 26.65582031 -11.47070312 25.74804688 C-11.02662109 24.82056641 -10.58253906 23.89308594 -10.125 22.9375 C-9.65384766 22.02162109 -9.18269531 21.10574219 -8.69726562 20.16210938 C-6.87863458 16.5513762 -6.87863458 16.5513762 -5.5625 12.75 C-6.42191811 10.66754744 -6.42191811 10.66754744 -7.5625 8.75 C-7.375 5.125 -7.375 5.125 -6.5625 1.75 C-3.5625 -0.25 -3.5625 -0.25 0 0 Z " fill="#5CC298" transform="translate(80.5625,26.25)"/>
</svg>
